<svg xmlns="http://www.w3.org/2000/svg" version="1.1" viewBox="0 0 138.60374 110.7425" width="521" height="226" style="height: 2.5rem;" fill="none"><g transform="matrix(1.25 0 0 -1.25 -134.74 386.45)"><g><path d="m163.26 284.66-8.476 12.718 8.477 4.891 8.478-4.891-8.479-12.718zm0.001-57.202-8.477 4.889 8.476 12.718 8.479-12.718-8.478-4.889zm41.025 6.445-20.166 30.96 20.257 31.102 13.498 12.395h-109.28l13.513-12.337 20.296-31.161-20.158-30.947-13.523-12.549h109.07l-13.501 12.537z" fill="#9EA2A2"/><path d="m167.27 227.36-4.007-2.311-4.005 2.311-7.447 4.296 11.452 17.179 11.454-17.179-7.447-4.296zm-8.012 75.015 4.005 2.311 4.007-2.312 7.447-4.296-11.454-17.18-11.452 17.18 7.447 4.297zm43.419-69.822-21.047 32.313 21.148 32.469 9.736 8.939h-98.531l9.731-8.884 21.185-32.525-21.044-32.303-9.808-9.103h98.422l-9.792 9.094z" fill="#fff"/><path d="m179.14 264.87 22.032 33.827 5.98 5.491h-38.834l9.379-5.41-14.429-21.643-14.427 21.643 9.378 5.41h-38.844l5.95-5.431 22.072-33.887-21.926-33.661-6.096-5.656h38.844l-9.378 5.41 14.427 21.643 14.429-21.643-9.379-5.41h38.834l-6.08 5.646-21.932 33.671z" fill="#0C2340"/></g></g><style>
    [data-theme="dark"] .main-logo-svg {
      fill: #d4d4d4;
    }
    [data-theme="dark"] .main-logo-screw-svg {
      fill: #facc15;
    }
</style></svg>